<svg xmlns="http://www.w3.org/2000/svg" width="256" height="256" viewBox="0 0 256 256">
  <defs>
    <linearGradient id="ottone" x1="0" y1="0" x2="0.35" y2="1">
      <stop offset="0" stop-color="#f0cf86"/>
      <stop offset="0.45" stop-color="#d8a849"/>
      <stop offset="1" stop-color="#8a6a2a"/>
    </linearGradient>
    <linearGradient id="rilievo" x1="0" y1="0" x2="1" y2="1">
      <stop offset="0" stop-color="#ffeec2"/>
      <stop offset="0.5" stop-color="#d8a849"/>
      <stop offset="1" stop-color="#7d5f26"/>
    </linearGradient>
    <radialGradient id="fondo" cx="0.5" cy="0.4" r="0.66">
      <stop offset="0" stop-color="#2e2720"/>
      <stop offset="1" stop-color="#17130f"/>
    </radialGradient>
  </defs>
  <circle cx="128" cy="128" r="120" fill="url(#fondo)"/>
  <circle cx="128" cy="128" r="118" fill="none" stroke="url(#ottone)" stroke-width="9"/>
  <circle cx="128" cy="128" r="103" fill="none" stroke="#4a3a18" stroke-width="3"/>
  <g fill="url(#ottone)" stroke="#4a3a18" stroke-width="2">
    <circle cx="52" cy="52" r="8"/><circle cx="204" cy="52" r="8"/>
    <circle cx="52" cy="204" r="8"/><circle cx="204" cy="204" r="8"/>
  </g>
  <g fill="url(#rilievo)" stroke="#4a3a18" stroke-width="5" stroke-linejoin="round">
    <rect x="62" y="84" width="132" height="88" rx="12"/>
  </g>
  <g fill="#17130f">
    <rect x="70" y="92" width="16" height="11" rx="3"/>
    <rect x="98" y="92" width="16" height="11" rx="3"/>
    <rect x="126" y="92" width="16" height="11" rx="3"/>
    <rect x="154" y="92" width="16" height="11" rx="3"/>
    <rect x="70" y="153" width="16" height="11" rx="3"/>
    <rect x="98" y="153" width="16" height="11" rx="3"/>
    <rect x="126" y="153" width="16" height="11" rx="3"/>
    <rect x="154" y="153" width="16" height="11" rx="3"/>
  </g>
  <path d="M115 111 L115 145 L149 128 Z" fill="#17130f"
        stroke="#17130f" stroke-width="6" stroke-linejoin="round"/>
</svg>
