<svg xmlns="http://www.w3.org/2000/svg" width="256" height="256" viewBox="0 0 256 256">
  <defs>
    <linearGradient id="ottone" x1="0" y1="0" x2="0.35" y2="1">
      <stop offset="0" stop-color="#f0cf86"/>
      <stop offset="0.45" stop-color="#d8a849"/>
      <stop offset="1" stop-color="#8a6a2a"/>
    </linearGradient>
    <linearGradient id="rilievo" x1="0" y1="0" x2="1" y2="1">
      <stop offset="0" stop-color="#ffeec2"/>
      <stop offset="0.5" stop-color="#d8a849"/>
      <stop offset="1" stop-color="#7d5f26"/>
    </linearGradient>
    <radialGradient id="fondo" cx="0.5" cy="0.4" r="0.66">
      <stop offset="0" stop-color="#2e2720"/>
      <stop offset="1" stop-color="#17130f"/>
    </radialGradient>
  </defs>
  <circle cx="128" cy="128" r="120" fill="url(#fondo)"/>
  <circle cx="128" cy="128" r="118" fill="none" stroke="url(#ottone)" stroke-width="9"/>
  <circle cx="128" cy="128" r="103" fill="none" stroke="#4a3a18" stroke-width="3"/>
  <g fill="url(#ottone)" stroke="#4a3a18" stroke-width="2">
    <circle cx="52" cy="52" r="8"/><circle cx="204" cy="52" r="8"/>
    <circle cx="52" cy="204" r="8"/><circle cx="204" cy="204" r="8"/>
  </g>
  <g transform="translate(62.00 62.00) scale(1.3200)"><g fill="none" stroke="url(#ottone)" stroke-width="10" opacity="1.0" stroke-linecap="round" stroke-linejoin="round"><path d="M30 60 C 36 50, 64 50, 70 60"/><path d="M18 46 C 30 26, 70 26, 82 46"/><path d="M8 32 C 24 4, 76 4, 92 32" opacity="0.62"/></g><circle cx="50" cy="80" r="11" fill="url(#rilievo)" stroke="#4a3a18" stroke-width="4"/></g>
</svg>
